<?xml version="1.0" standalone="no"?><!DOCTYPE svg PUBLIC "-//W3C//DTD SVG 1.1//EN" "http://www.w3.org/Graphics/SVG/1.1/DTD/svg11.dtd"><svg t="1665915370014" class="icon" viewBox="0 0 1024 1024" version="1.1" xmlns="http://www.w3.org/2000/svg" p-id="7302" xmlns:xlink="http://www.w3.org/1999/xlink" width="200" height="200"><path d="M768 0a128 128 0 0 1 128 128v768a128 128 0 0 1-128 128H256a128 128 0 0 1-128-128V128a128 128 0 0 1 128-128h512z m0 64H256a64 64 0 0 0-63.552 56.512L192 128v768a64 64 0 0 0 56.512 63.552L256 960h512a64 64 0 0 0 63.552-56.512L832 896V128a64 64 0 0 0-56.512-63.552L768 64z" fill="#BDC8DE" p-id="7303"></path><path d="M512 832m-64 0a64 64 0 1 0 128 0 64 64 0 1 0-128 0Z" fill="#BDC8DE" p-id="7304"></path><path d="M256 128m64 0l384 0q64 0 64 64l0 448q0 64-64 64l-384 0q-64 0-64-64l0-448q0-64 64-64Z" fill="#DEE3EE" p-id="7305"></path><path d="M704 128a64 64 0 0 1 64 64v448a64 64 0 0 1-64 64H320a64 64 0 0 1-64-64V192a64 64 0 0 1 64-64h384z m0 64H320v448h384V192z" fill="#7D8FB3" p-id="7306"></path></svg>