<svg width="18" height="18" viewBox="0 0 18 18" fill="none" xmlns="http://www.w3.org/2000/svg">
<path fill-rule="evenodd" clip-rule="evenodd" d="M9.00008 2.44764C5.3814 2.44764 2.44789 5.38116 2.44789 8.99984C2.44789 12.6185 5.3814 15.552 9.00008 15.552C12.6188 15.552 15.5523 12.6185 15.5523 8.99984C15.5523 5.38116 12.6188 2.44764 9.00008 2.44764ZM1.40942 8.99984C1.40942 4.80763 4.80788 1.40918 9.00008 1.40918C13.1923 1.40918 16.5907 4.80763 16.5907 8.99984C16.5907 13.192 13.1923 16.5905 9.00008 16.5905C4.80788 16.5905 1.40942 13.192 1.40942 8.99984Z" fill="#515767"/>
<path fill-rule="evenodd" clip-rule="evenodd" d="M8.86563 5.74661C8.92267 6.02764 8.7411 6.30171 8.46006 6.35875C7.23013 6.60842 6.30457 7.69665 6.30457 8.99989C6.30457 10.4883 7.51119 11.6949 8.99963 11.6949C10.3029 11.6949 11.3911 10.7694 11.6408 9.53945C11.6978 9.25842 11.9719 9.07685 12.2529 9.13389C12.5339 9.19094 12.7155 9.465 12.6585 9.74604C12.3125 11.4504 10.8065 12.7334 8.99963 12.7334C6.93767 12.7334 5.26611 11.0619 5.26611 8.99989C5.26611 7.19304 6.54911 5.68702 8.25348 5.34105C8.53451 5.284 8.80858 5.46558 8.86563 5.74661Z" fill="#515767"/>
<path d="M12.3751 6.74944C12.3751 7.282 11.9434 7.71373 11.4108 7.71373C10.8783 7.71373 10.4465 7.282 10.4465 6.74944C10.4465 6.21688 10.8783 5.78516 11.4108 5.78516C11.9434 5.78516 12.3751 6.21688 12.3751 6.74944Z" fill="#515767"/>
</svg>
