<svg width="18" height="18" viewBox="0 0 18 18" fill="none" xmlns="http://www.w3.org/2000/svg">
<path fill-rule="evenodd" clip-rule="evenodd" d="M2.06774 11.7307C2.0779 11.4234 2.20453 11.1314 2.42197 10.914L10.7953 2.5406C11.5389 1.79702 12.7445 1.79701 13.4881 2.5406L15.7845 4.83699C16.5281 5.58058 16.5281 6.78617 15.7845 7.52975L7.41112 15.9031C7.19369 16.1206 6.90171 16.2472 6.59437 16.2574L3.20681 16.3693C2.5065 16.3925 1.9326 15.8186 1.95575 15.1183L2.06774 11.7307ZM3.15636 11.6484C3.1253 11.6794 3.10721 11.7211 3.10576 11.765L2.99377 15.1526C2.99046 15.2526 3.07245 15.3346 3.17249 15.3313L6.56006 15.2193C6.60396 15.2179 6.64567 15.1998 6.67673 15.1687L13.1463 8.69921L9.62597 5.17875L3.15636 11.6484ZM15.0501 6.79536L13.8807 7.96482L10.3604 4.44436L11.5297 3.27499C11.8677 2.937 12.4157 2.937 12.7537 3.27499L15.0501 5.57138C15.3881 5.90937 15.3881 6.45737 15.0501 6.79536ZM6.23147 11.1121C6.02866 11.3149 6.02866 11.6437 6.23145 11.8465C6.43424 12.0493 6.76304 12.0493 6.96584 11.8465L9.7669 9.04554C9.9697 8.84275 9.96971 8.51396 9.76692 8.31116C9.56413 8.10835 9.23533 8.10835 9.03253 8.31114L6.23147 11.1121Z" fill="#515767"/>
</svg>
